<?xml version="1.0" encoding="UTF-8" standalone="no"?>
<svg
   width="64"
   height="64"
   viewBox="0 0 64 64.000001"
   id="svg6535"
   version="1.1"
   xmlns="http://www.w3.org/2000/svg"
   xmlns:svg="http://www.w3.org/2000/svg"
   xmlns:rdf="http://www.w3.org/1999/02/22-rdf-syntax-ns#"
   xmlns:cc="http://creativecommons.org/ns#"
   xmlns:dc="http://purl.org/dc/elements/1.1/">
  <defs
     id="defs6537" />
  <metadata
     id="metadata6540">
    <rdf:RDF>
      <cc:Work
         rdf:about="">
        <dc:format>image/svg+xml</dc:format>
        <dc:type
           rdf:resource="http://purl.org/dc/dcmitype/StillImage" />
      </cc:Work>
    </rdf:RDF>
  </metadata>
  <g
     id="g1644">
    <path
       style="color:#000000;clip-rule:nonzero;display:inline;overflow:visible;visibility:visible;isolation:auto;mix-blend-mode:normal;color-interpolation:sRGB;color-interpolation-filters:linearRGB;solid-color:#000000;solid-opacity:1;fill:#000000;fill-opacity:1;fill-rule:nonzero;stroke:#4a90d9;stroke-width:0;stroke-linecap:round;stroke-linejoin:miter;stroke-miterlimit:4;stroke-dasharray:none;stroke-dashoffset:0;stroke-opacity:1;marker:none;color-rendering:auto;image-rendering:auto;shape-rendering:auto;text-rendering:auto;enable-background:accumulate"
       d="M 18,47 H 17 V 39.185547 C 17,36.866788 15.215998,35 13,35 10.784003,35 9.0000004,36.866788 9.0000004,39.185547 V 47 55.814453 60 H 13 38 49 c 2.215998,0 4,-1.866788 4,-4.185547 v -12.628906 -9 C 53,31.866788 51.215998,30 49,30 c -2.215997,0 -4,1.866788 -4,4.185547 V 39 H 44 V 31.185547 C 44,28.866788 42.327227,27 40.248047,27 h -0.49414 C 37.674727,27 36,28.866788 36,31.185547 V 39 H 35 V 24 c 0,-3 -2,-4 -4,-4 -2,0 -4,1 -4,4 V 39 H 26 V 24 C 26,21 24.023436,20.006852 22.02539,20 20.02344,19.9931 18.019283,21 18,24 c -0.04499,6.9997 0.02539,18 0,23 z"
       id="rect7529" />
    <path
       id="path1627"
       style="fill-opacity:0.387097;stroke-width:0.378293"
       d="M 42,23.038229 A 16,12.038229 0 0 1 26,35.076458 16,12.038229 0 0 1 10,23.038229 16,12.038229 0 0 1 26,11 16,12.038229 0 0 1 42,23.038229 Z" />
    <path
       style="color:#000000;fill:#000000;-inkscape-stroke:none"
       d="m 8.5,5 c -3.3066995,0 -6,2.6933005 -6,6 v 35 c 0,3.306699 2.6933005,6 6,6 h 45 c 3.306699,0 6,-2.693301 6,-6 V 11 c 0,-3.3066995 -2.693301,-6 -6,-6 z m 0,2 h 45 c 2.233295,0 4,1.766705 4,4 v 35 c 0,2.233295 -1.766705,4 -4,4 h -45 c -2.233295,0 -4,-1.766705 -4,-4 V 11 c 0,-2.233295 1.766705,-4 4,-4 z"
       id="rect3285" />
  </g>
</svg>
